<?xml version="1.0" encoding="UTF-8"?>
<svg xmlns="http://www.w3.org/2000/svg" xmlns:xlink="http://www.w3.org/1999/xlink" width="30px" height="30px" viewBox="0 0 30 30" version="1.1">
<g id="surface1">
<path style=" stroke:none;fill-rule:nonzero;fill:rgb(0%,0%,0%);fill-opacity:1;" d="M 13.601562 0.0585938 C 10.6875 0.339844 7.800781 1.527344 5.539062 3.367188 C 4.871094 3.90625 3.816406 4.972656 3.289062 5.636719 C 1.945312 7.316406 0.84375 9.589844 0.386719 11.628906 C 0.101562 12.90625 0.0351562 13.535156 0.0351562 15 C 0.0351562 16.464844 0.101562 17.089844 0.386719 18.367188 C 0.851562 20.449219 1.980469 22.757812 3.371094 24.460938 C 3.910156 25.128906 4.976562 26.183594 5.636719 26.710938 C 7.320312 28.054688 9.59375 29.15625 11.632812 29.613281 C 12.910156 29.898438 13.535156 29.964844 15 29.964844 C 16.464844 29.964844 17.09375 29.898438 18.371094 29.613281 C 19.898438 29.273438 21.902344 28.417969 23.222656 27.542969 C 25.5 26.027344 27.253906 24.035156 28.453125 21.589844 C 29.1875 20.097656 29.601562 18.753906 29.867188 17.050781 C 30.007812 16.105469 30.007812 13.890625 29.867188 12.949219 C 29.601562 11.242188 29.1875 9.902344 28.453125 8.40625 C 27.667969 6.8125 26.796875 5.59375 25.535156 4.351562 C 24.300781 3.128906 23.167969 2.324219 21.59375 1.550781 C 20.117188 0.824219 18.746094 0.398438 17.109375 0.144531 C 16.371094 0.0351562 14.367188 -0.0117188 13.601562 0.0585938 Z M 17.082031 2.042969 C 18.488281 2.277344 19.535156 2.617188 20.832031 3.25 C 24.171875 4.890625 26.753906 8.042969 27.6875 11.636719 C 28.003906 12.847656 28.089844 13.574219 28.089844 15 C 28.089844 16.421875 28.003906 17.148438 27.6875 18.363281 C 26.753906 21.953125 24.171875 25.105469 20.832031 26.746094 C 19.535156 27.378906 18.503906 27.714844 17.050781 27.960938 C 15.996094 28.140625 14.003906 28.140625 12.949219 27.960938 C 11.496094 27.714844 10.464844 27.378906 9.171875 26.746094 C 5.832031 25.105469 3.246094 21.953125 2.316406 18.363281 C 2 17.148438 1.910156 16.421875 1.910156 15 C 1.910156 13.574219 2 12.847656 2.316406 11.636719 C 2.636719 10.394531 3.3125 8.882812 4.015625 7.820312 C 6.253906 4.457031 9.710938 2.359375 13.742188 1.933594 C 14.496094 1.851562 16.285156 1.910156 17.082031 2.042969 Z M 17.082031 2.042969 "/>
<path style=" stroke:none;fill-rule:nonzero;fill:rgb(0%,0%,0%);fill-opacity:1;" d="M 14.445312 8.695312 C 14.203125 8.804688 8.753906 14.285156 8.671875 14.488281 C 8.589844 14.722656 8.601562 15.320312 8.695312 15.542969 C 8.800781 15.785156 14.273438 21.246094 14.492188 21.328125 C 15.265625 21.613281 16.007812 20.835938 15.679688 20.078125 C 15.632812 19.972656 14.71875 19.011719 13.628906 17.929688 L 11.660156 15.964844 L 16.78125 15.9375 C 21.84375 15.90625 21.910156 15.90625 22.066406 15.785156 C 22.378906 15.554688 22.472656 15.367188 22.472656 15 C 22.472656 14.628906 22.378906 14.441406 22.066406 14.214844 C 21.910156 14.089844 21.84375 14.089844 16.78125 14.0625 L 11.660156 14.03125 L 13.628906 12.070312 C 14.71875 10.984375 15.632812 10.023438 15.679688 9.917969 C 16.019531 9.140625 15.210938 8.347656 14.445312 8.695312 Z M 14.445312 8.695312 "/>
</g>
</svg>
