<?xml version="1.0" encoding="UTF-8"?>
<svg xmlns="http://www.w3.org/2000/svg" xmlns:xlink="http://www.w3.org/1999/xlink" width="30px" height="30px" viewBox="0 0 30 30" version="1.1">
<g id="surface1">
<path style=" stroke:none;fill-rule:nonzero;fill:rgb(0%,0%,0%);fill-opacity:1;" d="M 13.59375 1.816406 C 10.546875 2.195312 7.933594 3.421875 5.808594 5.472656 C 3.691406 7.515625 2.386719 10.042969 1.894531 13.035156 C 1.765625 13.832031 1.746094 15.988281 1.863281 16.757812 C 2.339844 19.84375 3.628906 22.398438 5.753906 24.46875 C 7.277344 25.949219 8.90625 26.933594 10.921875 27.589844 C 17.554688 29.753906 24.769531 26.347656 27.328125 19.84375 C 27.980469 18.199219 28.285156 16.410156 28.226562 14.589844 C 28.15625 12.5625 27.714844 10.820312 26.832031 9.0625 C 24.910156 5.253906 21.375 2.652344 17.140625 1.925781 C 16.335938 1.792969 14.328125 1.726562 13.59375 1.816406 Z M 16.4375 3.34375 C 18.597656 3.597656 20.832031 4.5625 22.558594 6.003906 C 24.433594 7.5625 25.859375 9.878906 26.433594 12.28125 C 26.84375 13.996094 26.824219 16.09375 26.398438 17.8125 C 25.535156 21.238281 23.203125 24.097656 20.035156 25.597656 C 18.40625 26.371094 16.824219 26.722656 15 26.722656 C 13.089844 26.722656 11.5625 26.371094 9.875 25.546875 C 7.425781 24.351562 5.621094 22.546875 4.449219 20.125 C 3.628906 18.425781 3.277344 16.910156 3.269531 15.027344 C 3.257812 10.464844 5.820312 6.378906 9.925781 4.421875 C 12.023438 3.421875 14.09375 3.074219 16.4375 3.34375 Z M 16.4375 3.34375 "/>
<path style=" stroke:none;fill-rule:nonzero;fill:rgb(0%,0%,0%);fill-opacity:1;" d="M 14.796875 12.035156 C 14.703125 12.082031 13.507812 13.234375 12.148438 14.59375 C 9.585938 17.171875 9.535156 17.238281 9.644531 17.589844 C 9.722656 17.835938 9.902344 18.035156 10.113281 18.105469 C 10.554688 18.25 10.59375 18.222656 12.289062 16.503906 C 13.15625 15.625 14.117188 14.648438 14.425781 14.324219 L 14.996094 13.738281 L 17.050781 15.832031 C 19.347656 18.167969 19.332031 18.15625 19.824219 17.941406 C 20.199219 17.769531 20.378906 17.3125 20.210938 16.972656 C 20.117188 16.792969 15.476562 12.140625 15.28125 12.035156 C 15.089844 11.933594 15.023438 11.933594 14.796875 12.035156 Z M 14.796875 12.035156 "/>
</g>
</svg>
